<svg width="186" height="186" viewBox="0 0 186 186" fill="none" xmlns="http://www.w3.org/2000/svg">
<path d="M70 100.8H72.2V103.4H70V100.8Z" fill="#24361B" stroke="#24361B" stroke-width="0.5"/>
<path d="M74.4 100.8H112.9V103.4H74.4V100.8Z" fill="#24361B" stroke="#24361B" stroke-width="0.5"/>
<path d="M70 106H72.2V108.6H70V106Z" fill="#24361B" stroke="#24361B" stroke-width="0.5"/>
<path d="M74.4 106H112.9V108.6H74.4V106Z" fill="#24361B" stroke="#24361B" stroke-width="0.5"/>
<path d="M70 111.2H72.2V113.8H70V111.2Z" fill="#24361B" stroke="#24361B" stroke-width="0.5"/>
<path d="M74.4 111.2H112.9V113.8H74.4V111.2Z" fill="#24361B" stroke="#24361B" stroke-width="0.5"/>
<path d="M70 116.4H72.2V119H70V116.4Z" fill="#24361B" stroke="#24361B" stroke-width="0.5"/>
<path d="M74.4 116.4H112.9V119H74.4V116.4Z" fill="#24361B" stroke="#24361B" stroke-width="0.5"/>
<path d="M89.8 63.1001H94.2V65.7001H89.8V63.1001Z" fill="#24361B" stroke="#24361B" stroke-width="0.5"/>
<path d="M89.8 67H94.2V69.6H89.8V67Z" fill="#24361B" stroke="#24361B" stroke-width="0.5"/>
<path d="M77.7 95.6H106.3C106.592 95.6 106.872 95.463 107.078 95.2192C107.284 94.9754 107.4 94.6447 107.4 94.3V60.5C107.4 60.1552 107.284 59.8245 107.078 59.5807C106.872 59.3369 106.592 59.2 106.3 59.2H77.7C77.4082 59.2 77.1284 59.3369 76.9222 59.5807C76.7159 59.8245 76.6 60.1552 76.6 60.5V94.3C76.6 94.6447 76.7159 94.9754 76.9222 95.2192C77.1284 95.463 77.4082 95.6 77.7 95.6ZM78.8 93V67H82.1C82.3917 67 82.6715 66.863 82.8778 66.6192C83.0841 66.3754 83.2 66.0447 83.2 65.7V61.8H85.4V73.5C85.3999 73.7599 85.4658 74.014 85.5891 74.2293C85.7125 74.4446 85.8876 74.6112 86.0919 74.7077L91.5919 77.3077C91.8539 77.4314 92.1461 77.4314 92.4081 77.3077L97.9081 74.7077C98.1124 74.6112 98.2875 74.4446 98.4108 74.2293C98.5342 74.014 98.6001 73.7599 98.6 73.5V61.8H100.8V65.7C100.8 66.0447 100.916 66.3754 101.122 66.6192C101.328 66.863 101.608 67 101.9 67H105.2V93H78.8ZM87.6 61.8H96.4V72.6199L92 74.6999L87.6 72.6199V61.8ZM105.2 64.4H103V61.8H105.2V64.4ZM81 61.8V64.4H78.8V61.8H81Z" fill="#24361B" stroke="#24361B" stroke-width="0.5"/>
<path d="M88.7 82.6001H82.1C81.8083 82.6001 81.5285 82.7371 81.3222 82.9809C81.1159 83.2247 81 83.5553 81 83.9001V89.1001C81 89.4449 81.1159 89.7755 81.3222 90.0193C81.5285 90.2631 81.8083 90.4001 82.1 90.4001H88.7C88.9917 90.4001 89.2715 90.2631 89.4778 90.0193C89.6841 89.7755 89.8 89.4449 89.8 89.1001V83.9001C89.8 83.5553 89.6841 83.2247 89.4778 82.9809C89.2715 82.7371 88.9917 82.6001 88.7 82.6001ZM87.6 87.8001H83.2V85.2001H87.6V87.8001Z" fill="#24361B" stroke="#24361B" stroke-width="0.5"/>
<path d="M96.4 82.6001H103V85.2001H96.4V82.6001Z" fill="#24361B" stroke="#24361B" stroke-width="0.5"/>
<path d="M96.4 87.8H103V90.4H96.4V87.8Z" fill="#24361B" stroke="#24361B" stroke-width="0.5"/>
<path d="M117.3 54H71.1C69.6418 54.0021 68.2439 54.6875 67.2128 55.9061C66.1818 57.1246 65.6017 58.7767 65.6 60.5V121.6H60.1C59.8083 121.6 59.5285 121.737 59.3222 121.981C59.1159 122.225 59 122.555 59 122.9C59.0023 125.313 59.8143 127.626 61.2579 129.332C62.7014 131.038 64.6585 131.997 66.7 132H116.2C116.492 132 116.772 131.863 116.978 131.619C117.184 131.375 117.3 131.045 117.3 130.7V64.4H123.9C124.192 64.4 124.472 64.263 124.678 64.0192C124.884 63.7754 125 63.4448 125 63.1C124.998 60.6874 124.186 58.3744 122.742 56.6684C121.299 54.9624 119.341 54.0028 117.3 54ZM66.7 129.4C65.4325 129.398 64.2043 128.88 63.2224 127.933C62.2406 126.986 61.5651 125.667 61.31 124.2H105.321C105.837 126.357 107.013 128.21 108.621 129.4H66.7ZM115.1 129.4C111.809 129.4 107.4 126.186 107.4 122.9C107.4 122.555 107.284 122.225 107.078 121.981C106.872 121.737 106.592 121.6 106.3 121.6H67.8V60.5C67.8 59.4657 68.1477 58.4737 68.7665 57.7423C69.3854 57.0109 70.2248 56.6 71.1 56.6H115.1V129.4ZM117.3 61.8V56.6C118.567 56.6016 119.796 57.1198 120.778 58.067C121.759 59.0143 122.435 60.3327 122.69 61.8H117.3Z" fill="#24361B" stroke="#24361B" stroke-width="0.5"/>
<g filter="url(#filter0_d)">
<path d="M154 91.5C154 126.018 126.018 154 91.5 154C56.9822 154 29 126.018 29 91.5C29 56.9822 56.9822 29 91.5 29C126.018 29 154 56.9822 154 91.5ZM32.9188 91.5C32.9188 123.853 59.1465 150.081 91.5 150.081C123.853 150.081 150.081 123.853 150.081 91.5C150.081 59.1465 123.853 32.9188 91.5 32.9188C59.1465 32.9188 32.9188 59.1465 32.9188 91.5Z" fill="#24361B"/>
<path d="M154 91.5C154 126.018 126.018 154 91.5 154C56.9822 154 29 126.018 29 91.5C29 56.9822 56.9822 29 91.5 29C126.018 29 154 56.9822 154 91.5ZM32.9188 91.5C32.9188 123.853 59.1465 150.081 91.5 150.081C123.853 150.081 150.081 123.853 150.081 91.5C150.081 59.1465 123.853 32.9188 91.5 32.9188C59.1465 32.9188 32.9188 59.1465 32.9188 91.5Z" fill="url(#paint0_linear)"/>
</g>
<defs>
<filter id="filter0_d" x="0.5" y="0.5" width="185" height="185" filterUnits="userSpaceOnUse" color-interpolation-filters="sRGB">
<feFlood flood-opacity="0" result="BackgroundImageFix"/>
<feColorMatrix in="SourceAlpha" type="matrix" values="0 0 0 0 0 0 0 0 0 0 0 0 0 0 0 0 0 0 127 0"/>
<feOffset dx="1.5" dy="1.5"/>
<feGaussianBlur stdDeviation="15"/>
<feColorMatrix type="matrix" values="0 0 0 0 1 0 0 0 0 1 0 0 0 0 1 0 0 0 0.8 0"/>
<feBlend mode="normal" in2="BackgroundImageFix" result="effect1_dropShadow"/>
<feBlend mode="normal" in="SourceGraphic" in2="effect1_dropShadow" result="shape"/>
</filter>
<linearGradient id="paint0_linear" x1="65.5" y1="50.5" x2="113" y2="130.5" gradientUnits="userSpaceOnUse">
<stop stop-color="white"/>
<stop offset="1" stop-color="#24361B"/>
</linearGradient>
</defs>
</svg>
