<svg width="186" height="186" viewBox="0 0 186 186" fill="none" xmlns="http://www.w3.org/2000/svg">
<g filter="url(#filter0_d)">
<path d="M123.025 89.098H120.569C120.111 81.8136 117.739 74.8803 113.784 69.2673C109.829 63.6543 104.488 59.6422 98.509 57.7921C98.2643 56.7061 97.7233 55.7459 96.9699 55.0603C96.2164 54.3747 95.2927 54.002 94.3418 54H87.6582C86.7068 54.002 85.7825 54.3751 85.0289 55.0615C84.2753 55.7479 83.7345 56.7092 83.4905 57.796C77.5186 59.6611 72.186 63.6768 68.2327 69.286C64.2795 74.8951 61.9017 81.8194 61.4292 89.098H58.9747C58.8467 89.0979 58.7199 89.1277 58.6016 89.1855C58.4833 89.2434 58.3758 89.3282 58.2853 89.4352C58.1948 89.5422 58.123 89.6692 58.074 89.809C58.0251 89.9488 57.9999 90.0986 58 90.2499V96.174C58 96.4795 58.1027 96.7725 58.2855 96.9885C58.4683 97.2045 58.7162 97.3259 58.9747 97.3259H61.3418V100.241C61.3673 107.795 63.7329 115.076 67.9915 120.709C72.2502 126.343 78.107 129.938 84.4557 130.816V130.848C84.4557 131.154 84.5584 131.447 84.7412 131.663C84.924 131.879 85.1719 132 85.4304 132H96.5696C96.8281 132 97.076 131.879 97.2588 131.663C97.4416 131.447 97.5443 131.154 97.5443 130.848V130.816C103.893 129.938 109.75 126.343 114.008 120.709C118.267 115.076 120.633 107.795 120.658 100.241V97.3259H123.025C123.284 97.3259 123.532 97.2045 123.715 96.9885C123.897 96.7725 124 96.4795 124 96.174V90.2499C124 90.0986 123.975 89.9488 123.926 89.809C123.877 89.6692 123.805 89.5422 123.715 89.4352C123.624 89.3282 123.517 89.2434 123.398 89.1855C123.28 89.1277 123.153 89.0979 123.025 89.098ZM118.616 89.098H98.6582V60.2282C100.759 60.9401 102.78 61.9451 104.679 63.2218V76.5377C104.68 77.6284 105.047 78.6741 105.7 79.4454C106.352 80.2166 107.237 80.6504 108.16 80.6516C109.083 80.6504 109.968 80.2166 110.62 79.4454C111.273 78.6741 111.64 77.6284 111.641 76.5377V69.8639C115.692 75.1949 118.143 81.9549 118.616 89.098ZM106.628 64.6646C107.705 65.5357 108.729 66.4951 109.692 67.5358V76.5377C109.691 77.0176 109.529 77.4776 109.242 77.8169C108.955 78.1562 108.566 78.3472 108.16 78.3478C107.754 78.347 107.365 78.156 107.078 77.8167C106.791 77.4774 106.629 77.0175 106.628 76.5377V64.6646ZM87.6582 56.3038H90.0253V76.2152C90.0253 76.5207 90.128 76.8137 90.3108 77.0297C90.4936 77.2457 90.7415 77.3671 91 77.3671C91.2585 77.3671 91.5064 77.2457 91.6892 77.0297C91.872 76.8137 91.9747 76.5207 91.9747 76.2152V56.3038H94.3418C94.9693 56.3047 95.571 56.5997 96.0147 57.1241C96.4585 57.6486 96.7081 58.3596 96.7089 59.1013V89.098H85.2911V59.1013C85.2919 58.3596 85.5415 57.6486 85.9853 57.1241C86.429 56.5997 87.0307 56.3047 87.6582 56.3038ZM72.3084 67.5595C73.2708 66.5129 74.2944 65.5478 75.3716 64.6712V76.5377C75.3706 77.0174 75.2089 77.4771 74.9219 77.8163C74.6349 78.1555 74.2459 78.3466 73.84 78.3478C73.434 78.3472 73.0447 78.1562 72.7576 77.8169C72.4705 77.4776 72.3089 77.0176 72.3084 76.5377V67.5595ZM70.359 69.8857V76.5338C70.36 77.6245 70.7271 78.6702 71.3797 79.4414C72.0323 80.2127 72.9171 80.6465 73.84 80.6477C74.7629 80.6465 75.6477 80.2127 76.3003 79.4414C76.9529 78.6702 77.32 77.6245 77.321 76.5338V63.2297C79.2195 61.9489 81.2408 60.9411 83.3418 60.2275V89.098H63.3819C63.8682 81.9652 66.3189 75.2171 70.359 69.887V69.8857ZM63.2911 100.241V97.3259H64.6835V100.241C64.7178 106.744 66.7366 113.014 70.3689 117.899C74.0012 122.784 79.0031 125.957 84.4557 126.833V128.5C78.6262 127.629 73.2639 124.281 69.3695 119.081C65.4751 113.881 63.3146 107.185 63.2911 100.241ZM115.367 97.3259V100.241C115.336 106.147 113.515 111.844 110.234 116.3C106.953 120.755 102.43 123.673 97.4841 124.524C97.4841 124.517 97.478 124.513 97.4758 124.506C97.4448 124.412 97.4034 124.324 97.3527 124.243C97.3416 124.224 97.3288 124.209 97.3165 124.191C97.2673 124.12 97.2112 124.057 97.1494 124.003C97.1405 123.995 97.1327 123.985 97.1238 123.978C97.0528 123.921 96.9759 123.875 96.8949 123.842C96.8754 123.834 96.8565 123.827 96.8392 123.821C96.7518 123.789 96.661 123.773 96.5696 123.772H85.4304C85.3393 123.774 85.2489 123.79 85.1619 123.822C85.1424 123.829 85.1235 123.835 85.1062 123.843C85.0252 123.876 84.9483 123.922 84.8773 123.979C84.8684 123.987 84.8606 123.996 84.8517 124.004C84.7899 124.059 84.7338 124.122 84.6846 124.193C84.6729 124.21 84.6601 124.226 84.649 124.244C84.5982 124.325 84.5568 124.414 84.5259 124.507C84.5259 124.513 84.5197 124.519 84.5175 124.525C79.5714 123.675 75.0472 120.757 71.7658 116.301C68.4844 111.846 66.6633 106.147 66.6329 100.241V97.3259H115.367ZM95.5949 129.696H86.4051V126.076H95.5949V129.696ZM118.709 100.241C118.686 107.185 116.525 113.882 112.631 119.082C108.736 124.282 103.374 127.63 97.5443 128.501V126.833C102.997 125.957 107.999 122.784 111.631 117.899C115.263 113.014 117.282 106.744 117.316 100.241V97.3259H118.709V100.241ZM122.051 95.0221H59.9494V91.4018H122.051V95.0221Z" fill="#24361B" stroke="#24361B" stroke-width="0.5"/>
<path d="M154 91.5C154 126.018 126.018 154 91.5 154C56.9822 154 29 126.018 29 91.5C29 56.9822 56.9822 29 91.5 29C126.018 29 154 56.9822 154 91.5ZM32.9188 91.5C32.9188 123.853 59.1465 150.081 91.5 150.081C123.853 150.081 150.081 123.853 150.081 91.5C150.081 59.1465 123.853 32.9188 91.5 32.9188C59.1465 32.9188 32.9188 59.1465 32.9188 91.5Z" fill="#24361B"/>
<path d="M154 91.5C154 126.018 126.018 154 91.5 154C56.9822 154 29 126.018 29 91.5C29 56.9822 56.9822 29 91.5 29C126.018 29 154 56.9822 154 91.5ZM32.9188 91.5C32.9188 123.853 59.1465 150.081 91.5 150.081C123.853 150.081 150.081 123.853 150.081 91.5C150.081 59.1465 123.853 32.9188 91.5 32.9188C59.1465 32.9188 32.9188 59.1465 32.9188 91.5Z" fill="url(#paint0_linear)"/>
</g>
<defs>
<filter id="filter0_d" x="0.5" y="0.5" width="185" height="185" filterUnits="userSpaceOnUse" color-interpolation-filters="sRGB">
<feFlood flood-opacity="0" result="BackgroundImageFix"/>
<feColorMatrix in="SourceAlpha" type="matrix" values="0 0 0 0 0 0 0 0 0 0 0 0 0 0 0 0 0 0 127 0"/>
<feOffset dx="1.5" dy="1.5"/>
<feGaussianBlur stdDeviation="15"/>
<feColorMatrix type="matrix" values="0 0 0 0 1 0 0 0 0 1 0 0 0 0 1 0 0 0 0.8 0"/>
<feBlend mode="normal" in2="BackgroundImageFix" result="effect1_dropShadow"/>
<feBlend mode="normal" in="SourceGraphic" in2="effect1_dropShadow" result="shape"/>
</filter>
<linearGradient id="paint0_linear" x1="65.5" y1="50.5" x2="113" y2="130.5" gradientUnits="userSpaceOnUse">
<stop stop-color="white"/>
<stop offset="1" stop-color="#24361B"/>
</linearGradient>
</defs>
</svg>
