<svg width="186" height="186" viewBox="0 0 186 186" fill="none" xmlns="http://www.w3.org/2000/svg">
<path d="M84.1177 85.4929C83.2885 85.4929 82.6162 86.0043 82.6162 86.6355V89.4106C82.6162 90.0418 83.2885 90.5532 84.1177 90.5532C84.9469 90.5532 85.6191 90.0418 85.6191 89.4106V86.6355C85.6191 86.0043 84.9469 85.4929 84.1177 85.4929Z" fill="#24361B" stroke="black" stroke-width="0.5"/>
<path d="M99.8822 90.5532C100.711 90.5532 101.384 90.0418 101.384 89.4106V86.6355C101.384 86.0043 100.711 85.4929 99.8822 85.4929C99.053 85.4929 98.3807 86.0043 98.3807 86.6355V89.4106C98.3807 90.0416 99.053 90.5532 99.8822 90.5532Z" fill="#24361B" stroke="black" stroke-width="0.5"/>
<path d="M119.992 94.3768C119.877 89.3295 118.449 83.9716 115.969 79.2899C113.321 74.2892 109.617 70.2885 105.228 67.6758V62.2452L113.012 60.5329V65.4754C113.012 66.1078 113.685 66.6203 114.516 66.6203C115.347 66.6203 116.021 66.1078 116.021 65.4754V59.0104C116.027 58.511 115.565 58.0453 114.934 57.9106L92.8156 53.0449C92.5425 52.985 92.253 52.985 91.98 53.0449L69.8615 57.9105C69.2178 58.0521 68.7748 58.5005 68.7748 59.0102C68.7748 59.52 69.2178 59.9685 69.8615 60.11L78.7295 62.0608V67.7004C76.001 69.3305 73.5463 71.4861 71.4254 74.1177C70.991 74.6567 71.213 75.3614 71.9213 75.6922C72.6184 76.0199 73.5533 75.8584 73.9903 75.3148C75.8046 73.0635 77.8689 71.2049 80.1379 69.7768C81.7122 70.6878 85.1333 71.9582 91.978 71.9582C98.8548 71.9582 102.277 70.6758 103.842 69.764C107.612 72.1331 110.824 75.6999 113.179 80.1456C115.524 84.5741 116.875 89.6423 116.984 94.4164C117.114 100.098 115.448 104.751 112.481 107.16C109.399 105.03 105.626 103.615 101.454 103.092C106.465 100.693 109.803 96.4467 109.803 91.6179V83.6739C109.803 83.1866 109.397 82.7527 108.792 82.5926C102.39 80.8985 98.6603 74.8805 98.6162 74.8081C98.1682 74.0033 96.5822 73.9172 95.9883 74.6646C90.7341 80.8259 75.6421 82.524 75.4909 82.5403C74.7488 82.6202 74.1969 83.1035 74.1969 83.6739V91.6179C74.1969 96.4467 77.5347 100.693 82.5462 103.092C78.3731 103.615 74.5993 105.03 71.5173 107.161C65.6744 102.447 65.4228 89.6981 71.2248 79.4071C71.5523 78.826 71.199 78.153 70.4354 77.9036C69.6723 77.6547 68.7874 77.9231 68.4597 78.5043C65.3781 83.9701 63.763 90.4528 64.0282 96.2903C64.2821 101.874 66.1893 106.259 69.4377 108.818C66.3282 111.664 64.4558 115.32 64.4558 119.303V120.501C64.4558 121.133 65.1293 121.646 65.9603 121.646C66.7913 121.646 67.4647 121.133 67.4647 120.501V119.303C67.4647 114.466 70.6737 110.19 75.556 107.64L90.4957 120.924V128.71H77.7519V123.554C77.7519 122.921 77.0783 122.409 76.2475 122.409C75.4167 122.409 74.743 122.921 74.743 123.554V128.71H67.4647V125.086C67.4647 124.454 66.7913 123.941 65.9603 123.941C65.1293 123.941 64.4558 124.454 64.4558 125.086V129.855C64.4558 130.487 65.1293 131 65.9603 131H118.04C118.87 131 119.544 130.487 119.544 129.855V119.302C119.544 115.32 117.672 111.665 114.562 108.818C118.176 105.961 120.139 100.794 119.992 94.3768ZM92.3978 55.3363L109.099 59.0104L103.282 60.2901C103.279 60.2907 103.277 60.2913 103.274 60.2919L92.398 62.6843L80.6836 60.1074C80.6812 60.1068 80.6786 60.1063 80.676 60.1057L75.6967 59.0104L92.3978 55.3363ZM81.7382 67.8163V62.7227L91.98 64.9757C92.253 65.0357 92.5425 65.0357 92.8156 64.9757L102.219 62.9072V67.8162C101.422 68.3391 98.7291 69.6687 91.978 69.6687C85.227 69.6685 82.5354 68.339 81.7382 67.8163ZM95.3388 105.166L92 108.538L88.6611 105.166H95.3388ZM77.2056 91.6179V84.6407C80.8838 84.1145 91.3712 82.2399 97.0357 77.3809C98.654 79.4225 101.948 82.8534 106.794 84.4548V91.6179C106.794 97.8257 100.157 102.876 91.9998 102.876C83.8423 102.876 77.2056 97.8256 77.2056 91.6179ZM116.535 128.71H109.257V123.554C109.257 122.921 108.583 122.409 107.752 122.409C106.922 122.409 106.248 122.921 106.248 123.554V128.71H93.5042V120.924L98.974 116.06C99.5143 115.58 99.4404 114.857 98.8092 114.446C98.178 114.035 97.2283 114.091 96.6881 114.571L92 118.74L78.2158 106.483C80.2748 105.752 82.5376 105.301 84.9201 105.192L90.7984 111.129C91.3616 111.73 92.6384 111.73 93.2016 111.129L99.0799 105.192C101.462 105.3 103.725 105.752 105.784 106.483L100.609 111.085C100.069 111.565 100.143 112.288 100.774 112.699C101.402 113.108 102.353 113.055 102.895 112.573L108.444 107.639C113.326 110.189 116.535 114.466 116.535 119.302V128.71Z" fill="#24361B" stroke="black" stroke-width="0.5"/>
<path d="M98.6279 94.2455C99.362 92.817 96.6882 91.9698 95.864 93.3532L95.8638 93.3531C95.8322 93.405 95.059 94.6247 92.3972 94.6247C89.7352 94.6247 88.9621 93.405 88.9307 93.3531H88.9305C88.2166 91.9703 85.3528 92.8755 86.1664 94.2452C86.23 94.3627 87.671 96.9097 92.3972 96.9097C97.123 96.9099 98.5642 94.363 98.6279 94.2455Z" fill="#24361B" stroke="black" stroke-width="0.5"/>
<g filter="url(#filter0_d)">
<path d="M154 91.5C154 126.018 126.018 154 91.5 154C56.9822 154 29 126.018 29 91.5C29 56.9822 56.9822 29 91.5 29C126.018 29 154 56.9822 154 91.5ZM32.9188 91.5C32.9188 123.853 59.1465 150.081 91.5 150.081C123.853 150.081 150.081 123.853 150.081 91.5C150.081 59.1465 123.853 32.9188 91.5 32.9188C59.1465 32.9188 32.9188 59.1465 32.9188 91.5Z" fill="#24361B"/>
<path d="M154 91.5C154 126.018 126.018 154 91.5 154C56.9822 154 29 126.018 29 91.5C29 56.9822 56.9822 29 91.5 29C126.018 29 154 56.9822 154 91.5ZM32.9188 91.5C32.9188 123.853 59.1465 150.081 91.5 150.081C123.853 150.081 150.081 123.853 150.081 91.5C150.081 59.1465 123.853 32.9188 91.5 32.9188C59.1465 32.9188 32.9188 59.1465 32.9188 91.5Z" fill="url(#paint0_linear)"/>
</g>
<defs>
<filter id="filter0_d" x="0.5" y="0.5" width="185" height="185" filterUnits="userSpaceOnUse" color-interpolation-filters="sRGB">
<feFlood flood-opacity="0" result="BackgroundImageFix"/>
<feColorMatrix in="SourceAlpha" type="matrix" values="0 0 0 0 0 0 0 0 0 0 0 0 0 0 0 0 0 0 127 0"/>
<feOffset dx="1.5" dy="1.5"/>
<feGaussianBlur stdDeviation="15"/>
<feColorMatrix type="matrix" values="0 0 0 0 1 0 0 0 0 1 0 0 0 0 1 0 0 0 0.8 0"/>
<feBlend mode="normal" in2="BackgroundImageFix" result="effect1_dropShadow"/>
<feBlend mode="normal" in="SourceGraphic" in2="effect1_dropShadow" result="shape"/>
</filter>
<linearGradient id="paint0_linear" x1="65.5" y1="50.5" x2="113" y2="130.5" gradientUnits="userSpaceOnUse">
<stop stop-color="white"/>
<stop offset="1" stop-color="#24361B"/>
</linearGradient>
</defs>
</svg>
