<svg width="186" height="186" viewBox="0 0 186 186" fill="none" xmlns="http://www.w3.org/2000/svg">
<path d="M110.594 60.1814H71.4062C69.9025 60.1834 68.4608 60.8902 67.3975 62.1469C66.3342 63.4035 65.736 65.1073 65.7344 66.8845V98.1302C65.736 99.9074 66.3342 101.611 67.3975 102.868C68.4608 104.125 69.9025 104.831 71.4062 104.833H84.0174L86.9049 113.535C86.8265 113.426 86.7274 113.341 86.6158 113.286C86.5043 113.231 86.3833 113.209 86.2628 113.22C82.684 113.531 79.4437 114.235 77.137 115.202C74.4462 116.33 73.082 117.756 73.082 119.439C73.082 123.627 81.9121 125.819 90.6352 125.819C98.4953 125.819 105.21 124.094 107.345 121.528C107.884 120.879 108.153 120.174 108.144 119.432C108.14 117.774 106.793 116.366 104.14 115.247C101.854 114.283 98.6418 113.581 95.0963 113.271C94.9942 113.26 94.8913 113.274 94.7937 113.311C94.696 113.347 94.6055 113.407 94.5274 113.485C94.4494 113.564 94.3852 113.66 94.3388 113.767C94.2924 113.875 94.2646 113.993 94.257 114.114C94.2494 114.235 94.2622 114.356 94.2947 114.471C94.3271 114.586 94.3786 114.692 94.446 114.783C94.5135 114.874 94.5956 114.949 94.6876 115.002C94.7796 115.056 94.8796 115.087 94.9819 115.094C102.906 115.788 106.598 118.097 106.598 119.439C106.598 119.445 106.598 119.45 106.598 119.455C106.601 119.692 106.482 119.957 106.242 120.246C104.695 122.107 98.8366 123.99 90.6352 123.99C86.2272 123.99 82.0887 123.433 78.9821 122.422C75.9751 121.444 74.6289 120.219 74.6289 119.439C74.6289 118.078 78.3623 115.739 86.3759 115.042C86.5755 115.024 86.7615 114.916 86.8949 114.74C87.0283 114.563 87.0987 114.333 87.0912 114.096L89.2984 120.747C89.3167 120.802 89.3393 120.854 89.3661 120.904C89.4966 121.146 89.6767 121.345 89.8897 121.484C90.1027 121.622 90.3417 121.694 90.5847 121.694C90.8277 121.694 91.0668 121.622 91.2798 121.484C91.4928 121.345 91.6729 121.146 91.8033 120.904C91.8301 120.854 91.8527 120.802 91.8709 120.747L97.1514 104.833H110.594C112.098 104.831 113.539 104.124 114.603 102.867C115.666 101.611 116.264 99.9068 116.266 98.1296V66.8845C116.264 65.1073 115.666 63.4035 114.603 62.1469C113.539 60.8902 112.098 60.1834 110.594 60.1814ZM114.719 98.1302C114.717 99.4227 114.282 100.662 113.509 101.576C112.736 102.49 111.687 103.004 110.594 103.005H96.6233C96.4678 103.005 96.3159 103.061 96.1875 103.164C96.059 103.268 95.96 103.414 95.9032 103.586L90.584 119.615L85.2648 103.585C85.2081 103.414 85.109 103.267 84.9805 103.163C84.8521 103.06 84.7002 103.005 84.5448 103.005H71.4062C70.3126 103.003 69.2641 102.489 68.4908 101.575C67.7175 100.661 67.2825 99.4221 67.2812 98.1296V66.8845C67.2825 65.592 67.7175 64.3529 68.4908 63.439C69.2641 62.5251 70.3126 62.011 71.4062 62.0095H110.594C111.687 62.011 112.736 62.5251 113.509 63.439C114.282 64.3529 114.717 65.592 114.719 66.8845V98.1302Z" fill="#24361B" stroke="#24361B" stroke-width="2.5"/>
<path d="M105.477 76.7075L91.2972 69.7301C91.203 69.6838 91.102 69.6599 90.9999 69.6599C90.8979 69.6599 90.7969 69.6838 90.7027 69.7301L76.523 76.7075C76.382 76.7768 76.2616 76.894 76.1768 77.0442C76.0921 77.1943 76.0469 77.3708 76.0469 77.5513C76.0469 77.7318 76.0921 77.9082 76.1768 78.0584C76.2616 78.2086 76.382 78.3257 76.523 78.3951L81.5953 80.8911V87.7441C81.5953 87.9866 81.6768 88.2191 81.8219 88.3905C81.9669 88.5619 82.1636 88.6582 82.3688 88.6582H82.983C85.1026 88.6582 87.3091 91.0378 88.7691 92.6124C89.7974 93.7213 90.3135 94.278 90.8997 94.278C91.4788 94.278 91.9929 93.721 93.0168 92.6112C94.4695 91.0371 96.6649 88.6582 98.7163 88.6582H99.4461C99.6513 88.6582 99.848 88.5619 99.993 88.3905C100.138 88.2191 100.22 87.9866 100.22 87.7441V80.9821L101.878 80.1658V90.0773C101.278 90.292 100.762 90.7542 100.425 91.38C100.088 92.0058 99.9523 92.7537 100.042 93.4878C100.132 94.2219 100.442 94.8935 100.915 95.3806C101.389 95.8677 101.994 96.138 102.622 96.1423C103.25 96.1466 103.858 95.8847 104.336 95.4042C104.814 94.9237 105.13 94.2564 105.228 93.5236C105.325 92.7908 105.197 92.0411 104.866 91.4106C104.535 90.7802 104.024 90.3109 103.425 90.088V79.4045L105.477 78.3951C105.618 78.3257 105.738 78.2086 105.823 78.0584C105.908 77.9082 105.953 77.7318 105.953 77.5513C105.953 77.3708 105.908 77.1943 105.823 77.0442C105.738 76.894 105.618 76.7768 105.477 76.7075ZM102.637 94.3322C102.422 94.3339 102.212 94.2602 102.033 94.1206C101.854 93.981 101.714 93.7817 101.631 93.548C101.548 93.3143 101.526 93.0568 101.567 92.808C101.608 92.5592 101.71 92.3304 101.862 92.1506C102.013 91.9708 102.206 91.8481 102.416 91.7981C102.626 91.7481 102.844 91.7729 103.042 91.8695C103.241 91.9661 103.41 92.1301 103.53 92.3408C103.649 92.5514 103.713 92.7991 103.713 93.0526C103.713 93.3907 103.6 93.7153 103.398 93.9552C103.197 94.195 102.923 94.3306 102.637 94.3322ZM90.9999 71.5639L103.168 77.551L92.9939 82.557C91.9317 83.0797 90.0677 83.0795 89.006 82.557L78.8324 77.551L90.9999 71.5639ZM98.6727 86.8301C96.0361 86.8593 93.5916 89.5077 91.9715 91.2633C91.5988 91.667 91.1524 92.1508 90.8959 92.371C90.6381 92.1524 90.1869 91.6665 89.8118 91.2615C88.2073 89.531 85.7988 86.9334 83.1422 86.8325V81.6528L88.4114 84.2456C89.1371 84.6027 90.0686 84.7814 90.9999 84.7814C91.9313 84.7814 92.8628 84.6027 93.5885 84.2456L98.6727 81.7438V86.8301Z" fill="#24361B" stroke="#24361B" stroke-width="2.5"/>
<g filter="url(#filter0_d)">
<path d="M154 91.5C154 126.018 126.018 154 91.5 154C56.9822 154 29 126.018 29 91.5C29 56.9822 56.9822 29 91.5 29C126.018 29 154 56.9822 154 91.5ZM32.9188 91.5C32.9188 123.853 59.1465 150.081 91.5 150.081C123.853 150.081 150.081 123.853 150.081 91.5C150.081 59.1465 123.853 32.9188 91.5 32.9188C59.1465 32.9188 32.9188 59.1465 32.9188 91.5Z" fill="#24361B"/>
<path d="M154 91.5C154 126.018 126.018 154 91.5 154C56.9822 154 29 126.018 29 91.5C29 56.9822 56.9822 29 91.5 29C126.018 29 154 56.9822 154 91.5ZM32.9188 91.5C32.9188 123.853 59.1465 150.081 91.5 150.081C123.853 150.081 150.081 123.853 150.081 91.5C150.081 59.1465 123.853 32.9188 91.5 32.9188C59.1465 32.9188 32.9188 59.1465 32.9188 91.5Z" fill="url(#paint0_linear)"/>
</g>
<defs>
<filter id="filter0_d" x="0.5" y="0.5" width="185" height="185" filterUnits="userSpaceOnUse" color-interpolation-filters="sRGB">
<feFlood flood-opacity="0" result="BackgroundImageFix"/>
<feColorMatrix in="SourceAlpha" type="matrix" values="0 0 0 0 0 0 0 0 0 0 0 0 0 0 0 0 0 0 127 0"/>
<feOffset dx="1.5" dy="1.5"/>
<feGaussianBlur stdDeviation="15"/>
<feColorMatrix type="matrix" values="0 0 0 0 1 0 0 0 0 1 0 0 0 0 1 0 0 0 0.8 0"/>
<feBlend mode="normal" in2="BackgroundImageFix" result="effect1_dropShadow"/>
<feBlend mode="normal" in="SourceGraphic" in2="effect1_dropShadow" result="shape"/>
</filter>
<linearGradient id="paint0_linear" x1="65.5" y1="50.5" x2="113" y2="130.5" gradientUnits="userSpaceOnUse">
<stop stop-color="white"/>
<stop offset="1" stop-color="#24361B"/>
</linearGradient>
</defs>
</svg>
