<svg width="186" height="186" viewBox="0 0 186 186" fill="none" xmlns="http://www.w3.org/2000/svg">
<g filter="url(#filter0_d)">
<path d="M154 91.5C154 126.018 126.018 154 91.5 154C56.9822 154 29 126.018 29 91.5C29 56.9822 56.9822 29 91.5 29C126.018 29 154 56.9822 154 91.5ZM32.9188 91.5C32.9188 123.853 59.1465 150.081 91.5 150.081C123.853 150.081 150.081 123.853 150.081 91.5C150.081 59.1465 123.853 32.9188 91.5 32.9188C59.1465 32.9188 32.9188 59.1465 32.9188 91.5Z" fill="#24361B"/>
<path d="M154 91.5C154 126.018 126.018 154 91.5 154C56.9822 154 29 126.018 29 91.5C29 56.9822 56.9822 29 91.5 29C126.018 29 154 56.9822 154 91.5ZM32.9188 91.5C32.9188 123.853 59.1465 150.081 91.5 150.081C123.853 150.081 150.081 123.853 150.081 91.5C150.081 59.1465 123.853 32.9188 91.5 32.9188C59.1465 32.9188 32.9188 59.1465 32.9188 91.5Z" fill="url(#paint0_linear)"/>
<path d="M123.116 67.6302L93.1717 55.2329C92.4215 54.9224 91.5783 54.9223 90.8283 55.2329L60.8839 67.6302C59.7434 68.1025 59 69.2127 59 70.4441V85.5148C59 106.266 71.578 124.932 90.8453 132.774C91.5854 133.075 92.4145 133.075 93.1547 132.774C112.422 124.932 125 106.266 125 85.5148V70.4441C125 69.2127 124.257 68.1025 123.116 67.6302ZM118.889 85.5148C118.889 103.155 108.5 119.395 92 126.644C75.9409 119.588 65.1111 103.633 65.1111 85.5148V72.4782L92 61.3459L118.889 72.4782V85.5148ZM88.6227 95.7849L101.756 82.6889C102.949 81.4991 104.884 81.499 106.077 82.6889C107.271 83.8789 107.27 85.808 106.077 86.9978L90.7833 102.248C89.5898 103.438 87.6552 103.438 86.4621 102.248L77.9228 93.7331C76.7294 92.5431 76.7294 90.614 77.9228 89.4242C79.1161 88.2344 81.0507 88.2342 82.2439 89.4242L88.6227 95.7849Z" fill="#24361B"/>
</g>
<defs>
<filter id="filter0_d" x="0.5" y="0.5" width="185" height="185" filterUnits="userSpaceOnUse" color-interpolation-filters="sRGB">
<feFlood flood-opacity="0" result="BackgroundImageFix"/>
<feColorMatrix in="SourceAlpha" type="matrix" values="0 0 0 0 0 0 0 0 0 0 0 0 0 0 0 0 0 0 127 0"/>
<feOffset dx="1.5" dy="1.5"/>
<feGaussianBlur stdDeviation="15"/>
<feColorMatrix type="matrix" values="0 0 0 0 1 0 0 0 0 1 0 0 0 0 1 0 0 0 0.8 0"/>
<feBlend mode="normal" in2="BackgroundImageFix" result="effect1_dropShadow"/>
<feBlend mode="normal" in="SourceGraphic" in2="effect1_dropShadow" result="shape"/>
</filter>
<linearGradient id="paint0_linear" x1="65.5" y1="50.5" x2="113" y2="130.5" gradientUnits="userSpaceOnUse">
<stop stop-color="white"/>
<stop offset="1" stop-color="#24361B"/>
</linearGradient>
</defs>
</svg>
