<svg width="186" height="186" viewBox="0 0 186 186" fill="none" xmlns="http://www.w3.org/2000/svg">
<path d="M95.3613 80.6514H70.3404C69.8005 80.6514 69.363 81.1629 69.363 81.7938C69.363 82.4248 69.8005 82.9362 70.3404 82.9362H95.3614C95.9012 82.9362 96.3387 82.4246 96.3387 81.7938C96.3387 81.1629 95.9012 80.6514 95.3613 80.6514Z" fill="#24361B" stroke="#24361B" stroke-width="0.5"/>
<path d="M95.3613 88.6792H70.3404C69.8005 88.6792 69.363 89.1908 69.363 89.8216C69.363 90.4525 69.8005 90.9641 70.3404 90.9641H95.3614C95.9012 90.9641 96.3387 90.4525 96.3387 89.8216C96.3387 89.1908 95.9012 88.6792 95.3613 88.6792Z" fill="#24361B" stroke="#24361B" stroke-width="0.5"/>
<path d="M95.3613 96.707H70.3404C69.8005 96.707 69.363 97.2186 69.363 97.8495C69.363 98.4803 69.8005 98.9919 70.3404 98.9919H95.3614C95.9012 98.9919 96.3387 98.4803 96.3387 97.8495C96.3387 97.2186 95.9012 96.707 95.3613 96.707Z" fill="#24361B" stroke="#24361B" stroke-width="0.5"/>
<path d="M96.3387 105.878C96.3387 105.247 95.9012 104.735 95.3614 104.735H70.3404C69.8005 104.735 69.363 105.247 69.363 105.878C69.363 106.508 69.8005 107.02 70.3404 107.02H95.3614C95.9012 107.02 96.3387 106.509 96.3387 105.878Z" fill="#24361B" stroke="#24361B" stroke-width="0.5"/>
<path d="M70.3404 116.5C69.8005 116.5 69.363 117.012 69.363 117.642C69.363 118.273 69.8005 118.785 70.3404 118.785H82.8829C83.4227 118.785 83.8602 118.273 83.8602 117.642C83.8602 117.012 83.4227 116.5 82.8829 116.5H70.3404Z" fill="#24361B" stroke="#24361B" stroke-width="0.5"/>
<path d="M106.624 67.1455V63.4384C106.624 62.0262 105.641 60.8772 104.433 60.8772H84.367C83.1588 60.8772 82.176 62.0262 82.176 63.4384V67.1455C82.176 68.5578 83.1588 69.7066 84.367 69.7066H86.0615C86.6013 69.7066 87.0388 69.195 87.0388 68.5642C87.0388 67.9332 86.6013 67.4217 86.0615 67.4217H84.367C84.2368 67.4217 84.1308 67.2979 84.1308 67.1457V63.4384C84.1308 63.2862 84.2368 63.1622 84.367 63.1622H104.433C104.564 63.1622 104.669 63.2861 104.669 63.4384V67.1455C104.669 67.2977 104.564 67.4216 104.433 67.4216H90.6308C90.091 67.4216 89.6535 67.9332 89.6535 68.564C89.6535 69.195 90.091 69.7064 90.6308 69.7064H104.433C105.641 69.7067 106.624 68.5578 106.624 67.1455Z" fill="#24361B" stroke="#24361B" stroke-width="0.5"/>
<path d="M113.932 122.666C113.393 122.666 112.955 123.178 112.955 123.809V125.347C112.955 127.204 111.663 128.715 110.074 128.715H66.8358C65.2473 128.715 63.9547 127.204 63.9547 125.347V70.4324C63.9547 70.1851 63.9794 69.9426 64.0236 69.7066H72.9228C74.7807 69.7066 76.2923 67.9397 76.2923 65.7679V55.3656C76.4942 55.3139 76.7015 55.285 76.913 55.285H110.074C111.662 55.285 112.955 56.7958 112.955 58.6529V73.8632C112.955 74.4942 113.392 75.0056 113.932 75.0056C114.472 75.0056 114.91 74.494 114.91 73.8632V58.6527C114.91 55.5359 112.74 53 110.074 53H76.9132C75.6215 53 74.407 53.588 73.4936 54.6557L63.4163 66.4353C62.5029 67.503 62 68.9225 62 70.4325V125.347C62 128.464 64.1693 131 66.8358 131H110.074C112.74 131 114.91 128.464 114.91 125.347V123.809C114.91 123.178 114.472 122.666 113.932 122.666ZM74.3376 56.9006V65.7679C74.3376 66.6799 73.7029 67.4218 72.9228 67.4218H65.3369L74.3376 56.9006Z" fill="#24361B" stroke="#24361B" stroke-width="0.5"/>
<path d="M127.319 93.8279C128.005 92.6507 128.182 91.1987 127.806 89.8441C127.429 88.4895 126.555 87.4368 125.409 86.956C124.648 86.637 124.14 85.8204 124.116 84.8759C124.079 83.4522 123.492 82.1555 122.506 81.3182C121.521 80.481 120.284 80.2298 119.115 80.6287C118.338 80.8934 117.518 80.5814 117.023 79.8342C116.277 78.7076 115.151 78.0615 113.932 78.0615C112.714 78.0615 111.587 78.7076 110.841 79.8342C110.347 80.5816 109.525 80.8931 108.75 80.6287C107.58 80.2295 106.344 80.481 105.358 81.3182C104.372 82.1555 103.786 83.4521 103.749 84.8757C103.724 85.8202 103.217 86.6366 102.456 86.9558C101.309 87.4366 100.435 88.4895 100.059 89.8439C99.6822 91.1986 99.8597 92.6507 100.546 93.8277C101.001 94.6088 101.001 95.6179 100.546 96.3988C99.8597 97.576 99.6822 99.028 100.059 100.383C100.435 101.737 101.309 102.79 102.456 103.271C103.217 103.59 103.724 104.406 103.749 105.351C103.783 106.661 104.296 107.891 105.158 108.727C105.726 109.278 106.409 109.623 107.123 109.739V120.14C107.123 121.018 107.531 121.829 108.186 122.257C108.841 122.685 109.645 122.666 110.285 122.205L113.87 119.626C113.928 119.583 113.963 119.602 113.995 119.626L117.58 122.205C118.219 122.665 119.024 122.685 119.679 122.257C120.335 121.829 120.742 121.018 120.742 120.14V109.738C121.456 109.623 122.139 109.278 122.707 108.727C123.569 107.891 124.082 106.661 124.116 105.351C124.14 104.406 124.648 103.59 125.409 103.271C126.556 102.79 127.43 101.737 127.806 100.382C128.183 99.0278 128.005 97.5758 127.319 96.3987C126.864 95.6181 126.864 94.6089 127.319 93.8279ZM118.604 120.259L115.02 117.68C114.353 117.2 113.512 117.2 112.845 117.68L109.26 120.259C109.179 120.317 109.078 120.25 109.078 120.14V109.522C109.75 109.431 110.416 109.75 110.841 110.393C111.587 111.519 112.714 112.165 113.932 112.165C115.151 112.165 116.277 111.519 117.023 110.393C117.448 109.75 118.115 109.431 118.787 109.522V120.14C118.787 120.251 118.685 120.317 118.604 120.259ZM125.703 97.6857C126.046 98.274 126.135 98.9996 125.947 99.6767C125.759 100.354 125.322 100.88 124.749 101.12C123.226 101.759 122.211 103.392 122.162 105.282C122.145 105.946 121.895 106.545 121.459 106.968C120.968 107.444 120.304 107.624 119.663 107.405C118.11 106.875 116.467 107.499 115.477 108.994C115.104 109.557 114.541 109.88 113.932 109.88C113.323 109.88 112.76 109.558 112.387 108.994C111.631 107.852 110.495 107.219 109.308 107.219C108.941 107.219 108.569 107.28 108.202 107.405C107.554 107.625 106.892 107.44 106.406 106.968C105.969 106.545 105.72 105.946 105.702 105.282C105.653 103.392 104.638 101.759 103.116 101.12C102.542 100.88 102.106 100.354 101.917 99.6767C101.729 98.9996 101.818 98.2739 102.161 97.6855C103.072 96.1229 103.072 94.1039 102.161 92.5413C101.818 91.953 101.729 91.2272 101.917 90.5501C102.106 89.873 102.542 89.3468 103.116 89.1066C104.638 88.4681 105.653 86.8345 105.702 84.9447C105.721 84.2331 106.014 83.5851 106.507 83.1667C106.999 82.7482 107.617 82.6227 108.202 82.822C109.754 83.3517 111.398 82.7275 112.387 81.2324C112.76 80.6693 113.323 80.3464 113.932 80.3464C114.541 80.3464 115.104 80.6692 115.477 81.2323C116.467 82.7275 118.109 83.3515 119.662 82.822C120.247 82.6224 120.865 82.7481 121.358 83.1666C121.85 83.5849 122.144 84.2331 122.162 84.9446C122.211 86.8344 123.226 88.4681 124.749 89.1064C125.322 89.3467 125.758 89.8729 125.947 90.5499C126.135 91.2269 126.046 91.9528 125.703 92.541C124.793 94.1038 124.793 96.1231 125.703 97.6857Z" fill="#24361B" stroke="#24361B" stroke-width="0.5"/>
<path d="M113.932 85.5381C109.415 85.5381 105.741 89.8336 105.741 95.1135C105.741 100.393 109.415 104.689 113.932 104.689C118.449 104.689 122.124 100.393 122.124 95.1135C122.124 89.8336 118.449 85.5381 113.932 85.5381ZM113.932 102.404C110.493 102.404 107.695 99.1335 107.695 95.1137C107.695 91.0938 110.493 87.8231 113.932 87.8231C117.371 87.8231 120.169 91.0936 120.169 95.1137C120.169 99.1337 117.371 102.404 113.932 102.404Z" fill="#24361B" stroke="#24361B" stroke-width="0.5"/>
<g filter="url(#filter0_d)">
<path d="M154 91.5C154 126.018 126.018 154 91.5 154C56.9822 154 29 126.018 29 91.5C29 56.9822 56.9822 29 91.5 29C126.018 29 154 56.9822 154 91.5ZM32.9188 91.5C32.9188 123.853 59.1465 150.081 91.5 150.081C123.853 150.081 150.081 123.853 150.081 91.5C150.081 59.1465 123.853 32.9188 91.5 32.9188C59.1465 32.9188 32.9188 59.1465 32.9188 91.5Z" fill="#24361B"/>
<path d="M154 91.5C154 126.018 126.018 154 91.5 154C56.9822 154 29 126.018 29 91.5C29 56.9822 56.9822 29 91.5 29C126.018 29 154 56.9822 154 91.5ZM32.9188 91.5C32.9188 123.853 59.1465 150.081 91.5 150.081C123.853 150.081 150.081 123.853 150.081 91.5C150.081 59.1465 123.853 32.9188 91.5 32.9188C59.1465 32.9188 32.9188 59.1465 32.9188 91.5Z" fill="url(#paint0_linear)"/>
</g>
<defs>
<filter id="filter0_d" x="0.5" y="0.5" width="185" height="185" filterUnits="userSpaceOnUse" color-interpolation-filters="sRGB">
<feFlood flood-opacity="0" result="BackgroundImageFix"/>
<feColorMatrix in="SourceAlpha" type="matrix" values="0 0 0 0 0 0 0 0 0 0 0 0 0 0 0 0 0 0 127 0"/>
<feOffset dx="1.5" dy="1.5"/>
<feGaussianBlur stdDeviation="15"/>
<feColorMatrix type="matrix" values="0 0 0 0 1 0 0 0 0 1 0 0 0 0 1 0 0 0 0.8 0"/>
<feBlend mode="normal" in2="BackgroundImageFix" result="effect1_dropShadow"/>
<feBlend mode="normal" in="SourceGraphic" in2="effect1_dropShadow" result="shape"/>
</filter>
<linearGradient id="paint0_linear" x1="65.5" y1="50.5" x2="113" y2="130.5" gradientUnits="userSpaceOnUse">
<stop stop-color="white"/>
<stop offset="1" stop-color="#24361B"/>
</linearGradient>
</defs>
</svg>
