<svg width="186" height="186" viewBox="0 0 186 186" fill="none" xmlns="http://www.w3.org/2000/svg">
<path d="M70.474 130H112.162C112.396 129.999 112.629 129.968 112.857 129.908C113.392 129.96 113.931 130 114.478 130C124.481 130.003 132.678 121.087 132.991 109.863C133.304 98.6392 125.619 89.1652 115.636 88.4663V66.3C115.636 66.2714 115.623 66.2467 115.621 66.2181C115.614 66.1002 115.594 65.9839 115.559 65.8723C115.546 65.8279 115.529 65.7844 115.511 65.7423C115.466 65.64 115.409 65.545 115.342 65.4602C115.319 65.4303 115.302 65.3965 115.277 65.3692C115.269 65.3614 115.265 65.3497 115.257 65.3419L102.519 52.3419C102.427 52.25 102.322 52.175 102.209 52.1196C102.185 52.1079 102.159 52.104 102.135 52.0936C102.026 52.0472 101.912 52.02 101.797 52.013C101.777 52.0117 101.761 52 101.74 52H70.474C68.5554 52 67 53.7461 67 55.9V126.1C67 128.254 68.5554 130 70.474 130ZM130.69 109.2C130.68 119.247 123.428 127.389 114.478 127.4C113.942 127.4 113.413 127.368 112.889 127.31C112.863 127.308 112.836 127.308 112.809 127.31C104.12 126.301 97.7051 117.743 98.3041 107.959C98.903 98.175 106.3 90.683 115.031 91.0176C123.762 91.3521 130.687 99.3927 130.69 109.2ZM102.898 56.2393L111.482 65H104.056C103.416 65 102.898 64.418 102.898 63.7V56.2393ZM69.316 55.9C69.316 55.182 69.8344 54.6 70.474 54.6H100.582V63.7C100.582 65.8539 102.137 67.6 104.056 67.6H113.32V88.4663C105.101 89.0338 98.2052 95.6291 96.4001 104.648C94.595 113.667 98.3152 122.94 105.528 127.4H70.474C69.8344 127.4 69.316 126.818 69.316 126.1V55.9Z" fill="#24361B" stroke="#24361B" stroke-width="0.5"/>
<path d="M76.2641 105.3H83.2121C85.7702 105.3 87.844 102.972 87.844 100.1V98.8C87.8398 97.5183 87.0042 96.4312 85.8754 96.239L86.8331 92.3H89.7663C91.8901 92.2964 93.7408 90.6753 94.2605 88.3636L95.1186 84.5H98.266C99.0897 84.4972 99.8497 84.0018 100.26 83.2H101.74C103.846 83.1911 105.681 81.5889 106.208 79.3H109.846C110.486 79.3 111.004 78.718 111.004 78C111.004 77.282 110.486 76.7 109.846 76.7H106.208C105.681 74.4111 103.846 72.8089 101.74 72.8H100.26C99.8497 71.9982 99.0897 71.5028 98.266 71.5H76.2641C73.7059 71.5 71.6321 73.8281 71.6321 76.7V79.3C71.6321 82.1719 73.7059 84.5 76.2641 84.5H77.0642L74.2214 96.2H73.9481C72.669 96.2 71.6321 97.3641 71.6321 98.8V100.1C71.6321 102.972 73.7059 105.3 76.2641 105.3ZM92.0128 87.7266C91.7532 88.8831 90.8287 89.6952 89.7663 89.7H87.4654L88.7288 84.5H92.7308L92.0128 87.7266ZM104.056 78C104.056 79.4359 103.019 80.6 101.74 80.6H100.582V75.4H101.74C103.019 75.4 104.056 76.5641 104.056 78ZM98.266 81.9H93.634V74.1H98.266V81.9ZM73.9481 79.3V76.7C73.9481 75.2641 74.985 74.1 76.2641 74.1H91.318V81.9H76.2641C74.985 81.9 73.9481 80.7359 73.9481 79.3ZM79.4648 84.5H86.3271L83.4853 96.2H76.623L79.4648 84.5ZM73.9481 98.8H85.528V100.1C85.528 101.536 84.4911 102.7 83.2121 102.7H76.2641C74.985 102.7 73.9481 101.536 73.9481 100.1V98.8Z" fill="#24361B" stroke="#24361B" stroke-width="0.5"/>
<path d="M112.147 95.03C110.108 98.5647 105.214 108.792 105.214 113.1C105.214 118.844 109.361 123.5 114.478 123.5C119.594 123.5 123.742 118.844 123.742 113.1C123.742 108.792 118.848 98.5647 116.809 95.03C116.299 94.1401 115.421 93.6023 114.478 93.6023C113.535 93.6023 112.657 94.1401 112.147 95.03ZM121.426 113.1C121.426 117.408 118.315 120.9 114.478 120.9C110.641 120.9 107.53 117.408 107.53 113.1C107.53 110.036 111.45 101.022 114.092 96.4392C114.175 96.2901 114.321 96.1996 114.478 96.1996C114.635 96.1996 114.78 96.2901 114.863 96.4392C117.506 101.022 121.426 110.036 121.426 113.1Z" fill="#24361B" stroke="#24361B" stroke-width="0.5"/>
<path d="M112.162 113.1C112.162 112.382 111.643 111.8 111.004 111.8C110.364 111.8 109.846 112.382 109.846 113.1C109.846 115.972 111.92 118.3 114.478 118.3C115.117 118.3 115.636 117.718 115.636 117C115.636 116.282 115.117 115.7 114.478 115.7C113.199 115.7 112.162 114.536 112.162 113.1Z" fill="#24361B" stroke="#24361B" stroke-width="0.5"/>
<path d="M73.948 61.1H76.264C76.9036 61.1 77.422 60.518 77.422 59.8C77.422 59.082 76.9036 58.5 76.264 58.5H73.948C73.3085 58.5 72.79 59.082 72.79 59.8C72.79 60.518 73.3085 61.1 73.948 61.1Z" fill="#24361B" stroke="#24361B" stroke-width="0.5"/>
<path d="M80.896 61.1H91.318C91.9576 61.1 92.476 60.518 92.476 59.8C92.476 59.082 91.9576 58.5 91.318 58.5H80.896C80.2565 58.5 79.738 59.082 79.738 59.8C79.738 60.518 80.2565 61.1 80.896 61.1Z" fill="#24361B" stroke="#24361B" stroke-width="0.5"/>
<path d="M91.318 63.7H89.002C88.3624 63.7 87.844 64.282 87.844 65C87.844 65.7179 88.3624 66.3 89.002 66.3H91.318C91.9575 66.3 92.476 65.7179 92.476 65C92.476 64.282 91.9575 63.7 91.318 63.7Z" fill="#24361B" stroke="#24361B" stroke-width="0.5"/>
<path d="M73.948 66.3H84.37C85.0096 66.3 85.528 65.7179 85.528 65C85.528 64.282 85.0096 63.7 84.37 63.7H73.948C73.3085 63.7 72.79 64.282 72.79 65C72.79 65.7179 73.3085 66.3 73.948 66.3Z" fill="#24361B" stroke="#24361B" stroke-width="0.5"/>
<path d="M73.948 113.1H76.264C76.9036 113.1 77.422 112.518 77.422 111.8C77.422 111.082 76.9036 110.5 76.264 110.5H73.948C73.3085 110.5 72.79 111.082 72.79 111.8C72.79 112.518 73.3085 113.1 73.948 113.1Z" fill="#24361B" stroke="#24361B" stroke-width="0.5"/>
<path d="M91.318 110.5H80.896C80.2565 110.5 79.738 111.082 79.738 111.8C79.738 112.518 80.2565 113.1 80.896 113.1H91.318C91.9576 113.1 92.476 112.518 92.476 111.8C92.476 111.082 91.9576 110.5 91.318 110.5Z" fill="#24361B" stroke="#24361B" stroke-width="0.5"/>
<path d="M91.318 115.7H89.002C88.3624 115.7 87.844 116.282 87.844 117C87.844 117.718 88.3624 118.3 89.002 118.3H91.318C91.9575 118.3 92.476 117.718 92.476 117C92.476 116.282 91.9575 115.7 91.318 115.7Z" fill="#24361B" stroke="#24361B" stroke-width="0.5"/>
<path d="M73.948 118.3H84.37C85.0096 118.3 85.528 117.718 85.528 117C85.528 116.282 85.0096 115.7 84.37 115.7H73.948C73.3085 115.7 72.79 116.282 72.79 117C72.79 117.718 73.3085 118.3 73.948 118.3Z" fill="#24361B" stroke="#24361B" stroke-width="0.5"/>
<path d="M76.264 120.9H73.948C73.3085 120.9 72.79 121.482 72.79 122.2C72.79 122.918 73.3085 123.5 73.948 123.5H76.264C76.9036 123.5 77.422 122.918 77.422 122.2C77.422 121.482 76.9036 120.9 76.264 120.9Z" fill="#24361B" stroke="#24361B" stroke-width="0.5"/>
<path d="M91.318 120.9H80.896C80.2565 120.9 79.738 121.482 79.738 122.2C79.738 122.918 80.2565 123.5 80.896 123.5H91.318C91.9576 123.5 92.476 122.918 92.476 122.2C92.476 121.482 91.9576 120.9 91.318 120.9Z" fill="#24361B" stroke="#24361B" stroke-width="0.5"/>
<g filter="url(#filter0_d)">
<path d="M154 91.5C154 126.018 126.018 154 91.5 154C56.9822 154 29 126.018 29 91.5C29 56.9822 56.9822 29 91.5 29C126.018 29 154 56.9822 154 91.5ZM32.9188 91.5C32.9188 123.853 59.1465 150.081 91.5 150.081C123.853 150.081 150.081 123.853 150.081 91.5C150.081 59.1465 123.853 32.9188 91.5 32.9188C59.1465 32.9188 32.9188 59.1465 32.9188 91.5Z" fill="#24361B"/>
<path d="M154 91.5C154 126.018 126.018 154 91.5 154C56.9822 154 29 126.018 29 91.5C29 56.9822 56.9822 29 91.5 29C126.018 29 154 56.9822 154 91.5ZM32.9188 91.5C32.9188 123.853 59.1465 150.081 91.5 150.081C123.853 150.081 150.081 123.853 150.081 91.5C150.081 59.1465 123.853 32.9188 91.5 32.9188C59.1465 32.9188 32.9188 59.1465 32.9188 91.5Z" fill="url(#paint0_linear)"/>
</g>
<defs>
<filter id="filter0_d" x="0.5" y="0.5" width="185" height="185" filterUnits="userSpaceOnUse" color-interpolation-filters="sRGB">
<feFlood flood-opacity="0" result="BackgroundImageFix"/>
<feColorMatrix in="SourceAlpha" type="matrix" values="0 0 0 0 0 0 0 0 0 0 0 0 0 0 0 0 0 0 127 0"/>
<feOffset dx="1.5" dy="1.5"/>
<feGaussianBlur stdDeviation="15"/>
<feColorMatrix type="matrix" values="0 0 0 0 1 0 0 0 0 1 0 0 0 0 1 0 0 0 0.8 0"/>
<feBlend mode="normal" in2="BackgroundImageFix" result="effect1_dropShadow"/>
<feBlend mode="normal" in="SourceGraphic" in2="effect1_dropShadow" result="shape"/>
</filter>
<linearGradient id="paint0_linear" x1="65.5" y1="50.5" x2="113" y2="130.5" gradientUnits="userSpaceOnUse">
<stop stop-color="white"/>
<stop offset="1" stop-color="#24361B"/>
</linearGradient>
</defs>
</svg>
