<svg width="32" height="32" viewBox="0 0 32 32" fill="none" xmlns="http://www.w3.org/2000/svg">
<path d="M16 32C24.8366 32 32 24.8366 32 16C32 7.16344 24.8366 0 16 0C7.16344 0 0 7.16344 0 16C0 24.8366 7.16344 32 16 32Z" fill="#82CE5A"/>
<path d="M9.91172 10.8611V13.7112H8.95172V6.43115H11.6367C12.4334 6.43115 13.0567 6.63446 13.5067 7.04111C13.9601 7.44781 14.1867 7.98614 14.1867 8.65613C14.1867 9.36278 13.9651 9.9078 13.5217 10.2911C13.0817 10.6712 12.45 10.8611 11.6267 10.8611H9.91172ZM9.91172 10.0761H11.6367C12.1501 10.0761 12.5434 9.95614 12.8167 9.71614C13.09 9.47282 13.2267 9.12278 13.2267 8.66612C13.2267 8.2328 13.09 7.88613 12.8167 7.62612C12.5434 7.36615 12.1684 7.23115 11.6917 7.22113H9.91172V10.0761ZM23.3617 19.1678H21.0217V25.6578H20.0667V19.1678H17.7317V18.3778H23.3617V19.1678Z" fill="black"/>
<path d="M17.9816 6.43115H18.9466V12.9261H22.5367V6.43115H23.4967V12.9061H24.2617L24.1716 15.4661H23.3067V13.7112H17.9816V6.43115ZM14.5517 22.2528C14.5517 22.9661 14.4317 23.5895 14.1917 24.1228C13.9517 24.6528 13.6116 25.0578 13.1717 25.3378C12.7316 25.6178 12.2183 25.7578 11.6317 25.7578C11.0583 25.7578 10.55 25.6178 10.1067 25.3378C9.66331 25.0545 9.31831 24.6528 9.07165 24.1328C8.82832 23.6095 8.70331 23.0045 8.69666 22.3178V21.7928C8.69666 21.0928 8.81834 20.4745 9.06167 19.9378C9.305 19.4011 9.64834 18.9912 10.0916 18.7078C10.5383 18.4211 11.0483 18.2778 11.6217 18.2778C12.205 18.2778 12.7183 18.4195 13.1617 18.7028C13.6083 18.9828 13.9517 19.3912 14.1917 19.9278C14.4317 20.4611 14.5517 21.0828 14.5517 21.7928V22.2528ZM13.5967 21.7828C13.5967 20.9195 13.4233 20.2578 13.0766 19.7978C12.73 19.3344 12.245 19.1028 11.6217 19.1028C11.015 19.1028 10.5367 19.3344 10.1867 19.7978C9.83999 20.2578 9.66165 20.8978 9.65166 21.7178V22.2528C9.65166 23.0895 9.82664 23.7478 10.1767 24.2278C10.53 24.7045 11.015 24.9428 11.6317 24.9428C12.2516 24.9428 12.7316 24.7178 13.0717 24.2678C13.4117 23.8144 13.5867 23.1661 13.5967 22.3228V21.7828Z" fill="#49424B"/>
</svg>
