<svg width="30" height="30" viewBox="0 0 30 30" fill="none" xmlns="http://www.w3.org/2000/svg">
<path d="M28.8288 27.196H23.3362L28.4804 21.0376C28.9706 20.4507 28.9706 19.499 28.4804 18.9121L13.0505 0.44025C12.5602 -0.14675 11.7653 -0.14675 11.275 0.44025L1.51964 12.1187C1.02931 12.7057 1.02931 13.6575 1.51964 14.2444L12.3382 27.196H1.17117C0.524373 27.196 0 27.8237 0 28.5979C0 29.3722 0.524373 30 1.17117 30H28.8288C29.4755 30 30 29.3722 30 28.5979C30 27.8237 29.4757 27.196 28.8288 27.196ZM23.7521 17.5027L15.8991 15.5018L14.2277 6.1005L23.7521 17.5027ZM4.18296 13.1815L11.3343 4.62029L13.5567 17.1204C13.6096 17.4176 13.733 17.6824 13.9053 17.8886C14.0777 18.0949 14.2988 18.2427 14.5471 18.306L24.9885 20.9666L19.7851 27.196H15.8893L4.18296 13.1815Z" fill="white"/>
</svg>
