<svg width="75" height="75" viewBox="0 0 75 75" fill="none" xmlns="http://www.w3.org/2000/svg">
<circle cx="37.5" cy="37.5" r="37.5" fill="#82CE5A"/>
<path d="M23.2305 25.4556V32.1353H20.9805V15.0728H27.2734C29.1406 15.0728 30.6016 15.5493 31.6562 16.5024C32.7188 17.4556 33.25 18.7173 33.25 20.2876C33.25 21.9438 32.7305 23.2212 31.6914 24.1196C30.6602 25.0103 29.1797 25.4556 27.25 25.4556H23.2305ZM23.2305 23.6157H27.2734C28.4766 23.6157 29.3984 23.3345 30.0391 22.772C30.6797 22.2017 31 21.3813 31 20.311C31 19.2954 30.6797 18.4829 30.0391 17.8735C29.3984 17.2642 28.5195 16.9478 27.4023 16.9243H23.2305V23.6157ZM54.7539 44.9243H49.2695V60.1353H47.0312V44.9243H41.5586V43.0728H54.7539V44.9243Z" fill="black"/>
<path d="M42.1445 15.0728H44.4062V30.2954H52.8203V15.0728H55.0703V30.2485H56.8633L56.6523 36.2485H54.625V32.1353H42.1445V15.0728ZM34.1055 52.1548C34.1055 53.8267 33.8242 55.2876 33.2617 56.5376C32.6992 57.7798 31.9023 58.729 30.8711 59.3853C29.8398 60.0415 28.6367 60.3696 27.2617 60.3696C25.918 60.3696 24.7266 60.0415 23.6875 59.3853C22.6484 58.7212 21.8398 57.7798 21.2617 56.561C20.6914 55.3345 20.3984 53.9165 20.3828 52.3071V51.0767C20.3828 49.436 20.668 47.9868 21.2383 46.729C21.8086 45.4712 22.6133 44.5103 23.6523 43.8462C24.6992 43.1743 25.8945 42.8384 27.2383 42.8384C28.6055 42.8384 29.8086 43.1704 30.8477 43.8345C31.8945 44.4907 32.6992 45.4478 33.2617 46.7056C33.8242 47.9556 34.1055 49.4126 34.1055 51.0767V52.1548ZM31.8672 51.0532C31.8672 49.0298 31.4609 47.479 30.6484 46.4009C29.8359 45.3149 28.6992 44.772 27.2383 44.772C25.8164 44.772 24.6953 45.3149 23.875 46.4009C23.0625 47.479 22.6445 48.979 22.6211 50.9009V52.1548C22.6211 54.1157 23.0312 55.6587 23.8516 56.7837C24.6797 57.9009 25.8164 58.4595 27.2617 58.4595C28.7148 58.4595 29.8398 57.9321 30.6367 56.8774C31.4336 55.8149 31.8438 54.2954 31.8672 52.3188V51.0532Z" fill="#49424B"/>
</svg>
