<svg width="30" height="31" viewBox="0 0 30 31" fill="none" xmlns="http://www.w3.org/2000/svg">
<path d="M29.2133 22.1918L25.0179 18.0052C23.5196 16.51 20.9724 17.1081 20.373 19.0518C19.9235 20.3976 18.4251 21.1452 17.0766 20.8461C14.0799 20.0985 10.0344 16.2109 9.28518 13.071C8.83567 11.7252 9.73468 10.23 11.0832 9.78152C13.0311 9.18344 13.6304 6.64158 12.1321 5.14637L7.93666 0.959789C6.73797 -0.0868569 4.93994 -0.0868569 3.89109 0.959789L1.04422 3.80069C-1.80266 6.7911 1.34389 14.7157 8.38616 21.7432C15.4284 28.7707 23.3697 32.0602 26.3664 29.0697L29.2133 26.2288C30.2622 25.0326 30.2622 23.2384 29.2133 22.1918Z" fill="white"/>
</svg>
